<?xml version="1.0" standalone="no"?>
<!DOCTYPE svg PUBLIC "-//W3C//DTD SVG 20010904//EN"
 "http://www.w3.org/TR/2001/REC-SVG-20010904/DTD/svg10.dtd">
<svg version="1.0" xmlns="http://www.w3.org/2000/svg"
 width="16.000000pt" height="16.000000pt" viewBox="0 0 1280.000000 1280.000000"
 preserveAspectRatio="xMidYMid meet">
<metadata>
Created by potrace 1.15, written by Peter Selinger 2001-2017
</metadata>
<g transform="translate(0.000000,1280.000000) scale(0.100000,-0.100000)"
fill="#e4d804" stroke="none">
<path d="M6180 12754 c-920 -50 -1679 -235 -2465 -602 -869 -405 -1665 -1032
-2268 -1787 -725 -907 -1183 -1976 -1342 -3130 -48 -354 -69 -901 -46 -1245
76 -1139 425 -2184 1046 -3125 965 -1465 2496 -2469 4225 -2769 396 -69 643
-89 1080 -90 361 -1 502 7 805 45 1851 229 3509 1263 4537 2829 917 1395 1248
3085 927 4730 -157 804 -481 1594 -936 2283 -779 1180 -1926 2067 -3263 2522
-506 173 -985 273 -1535 320 -166 15 -636 26 -765 19z m-45 -961 c-3 -236 -8
-782 -11 -1214 l-6 -787 -292 -6 c-160 -3 -762 -7 -1338 -10 l-1046 -4 11 32
c21 62 245 494 327 631 351 590 774 1054 1248 1372 165 110 445 249 621 307
147 49 386 104 454 105 l37 1 -5 -427z m645 407 c36 -6 108 -22 160 -36 479
-129 902 -385 1316 -798 387 -387 680 -812 966 -1400 42 -88 76 -161 75 -162
-1 -1 -600 -5 -1330 -9 l-1329 -7 6 934 c4 513 9 1060 12 1216 l6 283 27 -5
c14 -3 55 -10 91 -16z m1930 -428 c863 -366 1630 -939 2236 -1672 89 -107 214
-272 214 -282 0 -5 -292 -8 -648 -8 l-648 0 -34 78 c-254 585 -549 1085 -879
1487 -106 129 -306 349 -379 416 -79 72 -78 72 138 -19z m-4661 -119 c-339
-352 -639 -781 -900 -1288 -93 -180 -215 -443 -254 -547 l-18 -48 -411 0
c-226 0 -502 -3 -613 -7 -125 -4 -203 -3 -203 3 0 14 171 239 296 389 137 165
541 569 703 705 340 282 694 519 1061 709 160 83 446 219 464 220 4 1 -52 -61
-125 -136z m7519 -2475 c381 -703 611 -1464 687 -2272 9 -92 15 -169 13 -171
-2 -1 -400 -5 -885 -7 l-881 -4 -6 106 c-49 872 -181 1640 -402 2332 -19 59
-34 112 -34 118 0 7 239 10 724 10 l723 0 61 -112z m-2043 55 c250 -718 402
-1530 450 -2394 l6 -116 -1028 -6 c-565 -4 -1324 -7 -1685 -7 -620 0 -657 1
-654 18 2 9 7 585 11 1279 l8 1263 596 3 c328 1 975 3 1438 5 l841 2 17 -47z
m-3414 -213 c-3 -1156 -15 -2312 -25 -2315 -6 -2 -755 -6 -1664 -10 l-1653 -6
6 103 c52 892 170 1564 407 2301 l50 157 217 1 c1104 8 2376 15 2504 15 l158
-1 0 -245z m-3431 220 c0 -5 -13 -51 -29 -102 -198 -627 -337 -1400 -381
-2108 -6 -96 -13 -211 -16 -256 l-6 -81 -420 -6 c-232 -4 -609 -7 -837 -7
l-416 0 7 118 c30 454 133 967 288 1432 99 299 186 508 325 785 l111 220 289
5 c563 10 1085 10 1085 0z m9596 -3097 c-3 -38 -8 -113 -11 -168 -35 -618
-215 -1351 -477 -1945 -67 -153 -266 -546 -282 -559 -6 -5 -336 -11 -733 -13
-722 -3 -723 -3 -717 17 3 11 21 67 40 125 226 712 375 1602 400 2390 l7 209
131 4 c72 1 472 4 889 5 l758 2 -5 -67z m-2299 -142 c-27 -798 -179 -1657
-421 -2380 -30 -89 -56 -165 -58 -166 -2 -2 -657 -7 -1457 -11 l-1454 -7 7
639 c3 351 9 971 12 1376 l7 738 976 3 c537 1 1295 3 1685 5 l709 2 -6 -199z
m-3891 -573 c-3 -414 -9 -1033 -12 -1375 l-7 -623 -577 0 c-317 0 -948 -3
-1401 -7 l-824 -6 -68 204 c-248 755 -387 1538 -423 2386 l-7 163 624 3 c343
1 1092 3 1663 5 l1039 2 -7 -752z m-3832 570 c34 -843 177 -1681 412 -2426 25
-79 43 -147 39 -150 -3 -3 -304 -8 -668 -10 l-663 -4 -77 140 c-411 743 -654
1572 -717 2437 -5 77 -10 148 -10 157 0 17 34 18 538 21 295 1 673 3 838 5
l301 2 7 -172z m8900 -3070 c-20 -34 -140 -188 -248 -318 -148 -179 -515 -548
-696 -700 -403 -339 -830 -613 -1296 -833 -138 -65 -379 -167 -394 -167 -4 0
26 33 67 73 85 82 276 293 374 412 308 378 611 885 830 1387 l64 148 195 3
c107 1 401 3 653 5 364 2 457 -1 451 -10z m-1867 -5 c-3 -5 -32 -66 -66 -137
-184 -388 -418 -759 -690 -1096 -117 -145 -443 -468 -577 -572 -338 -264 -675
-437 -1029 -528 -97 -25 -297 -60 -341 -60 -15 0 -16 97 -10 1053 3 578 9
1116 12 1194 l6 143 817 3 c449 1 1056 3 1349 5 293 1 531 -1 529 -5z m-3222
-225 c-3 -117 -8 -649 -11 -1182 l-6 -968 -47 6 c-183 24 -470 121 -691 233
-284 145 -549 341 -815 608 -365 364 -646 762 -917 1300 l-100 200 423 5 c233
3 817 6 1297 8 l872 2 -5 -212z m-3081 37 c150 -335 324 -652 509 -930 203
-303 352 -489 580 -722 61 -62 107 -113 104 -113 -4 0 -65 25 -135 56 -876
387 -1684 1024 -2262 1784 l-61 80 368 3 c202 1 471 2 596 2 l229 0 72 -160z"/>
</g>
</svg>
